<svg xmlns="http://www.w3.org/2000/svg" viewBox="0 0 32 32" role="img" aria-label="??">
  <!-- ???????? + ???? -->
  <rect width="32" height="32" rx="5" fill="#0a0a0a"/>
  <!-- ?? -->
  <rect x="2" y="6" width="3.6" height="22" rx="0.8" fill="#fafafa" stroke="#d4d4d4" stroke-width="0.35"/>
  <rect x="6.2" y="6" width="3.6" height="22" rx="0.8" fill="#fafafa" stroke="#d4d4d4" stroke-width="0.35"/>
  <rect x="10.4" y="6" width="3.6" height="22" rx="0.8" fill="#fafafa" stroke="#d4d4d4" stroke-width="0.35"/>
  <rect x="14.6" y="6" width="3.6" height="22" rx="0.8" fill="#fafafa" stroke="#d4d4d4" stroke-width="0.35"/>
  <rect x="18.8" y="6" width="3.6" height="22" rx="0.8" fill="#fafafa" stroke="#d4d4d4" stroke-width="0.35"/>
  <rect x="23" y="6" width="3.6" height="22" rx="0.8" fill="#fafafa" stroke="#d4d4d4" stroke-width="0.35"/>
  <rect x="27.2" y="6" width="2.6" height="22" rx="0.8" fill="#fafafa" stroke="#d4d4d4" stroke-width="0.35"/>
  <!-- ?????????? -->
  <rect x="4.1" y="6" width="2.2" height="13" rx="0.45" fill="#171717" stroke="#404040" stroke-width="0.2"/>
  <rect x="8.3" y="6" width="2.2" height="13" rx="0.45" fill="#171717" stroke="#404040" stroke-width="0.2"/>
  <rect x="16.7" y="6" width="2.2" height="13" rx="0.45" fill="#171717" stroke="#404040" stroke-width="0.2"/>
  <rect x="20.9" y="6" width="2.2" height="13" rx="0.45" fill="#171717" stroke="#404040" stroke-width="0.2"/>
  <rect x="25.1" y="6" width="2.2" height="13" rx="0.45" fill="#171717" stroke="#404040" stroke-width="0.2"/>
</svg>
